<svg width="78" height="78" viewBox="0 0 78 78" fill="none" xmlns="http://www.w3.org/2000/svg">
<rect width="78" height="78" fill="#1DE652"/>
<path d="M54.6066 33.3321C54.2404 32.9661 53.6468 32.9661 53.2807 33.3321C52.9146 33.6983 52.9146 34.2919 53.2807 34.658C53.2951 34.6725 53.3101 34.6872 53.3246 34.7007C53.5056 34.8701 53.7357 34.9539 53.9654 34.9539C54.2155 34.9539 54.4653 34.8542 54.6498 34.6573C55.0038 34.2795 54.9844 33.6861 54.6066 33.3321Z" fill="white"/>
<path d="M52.7018 31.7924C52.1652 31.4279 51.6142 31.1029 51.0643 30.8261C47.9531 29.2605 44.6562 28.9463 41.5298 29.9172C41.0354 30.0708 40.7589 30.5961 40.9126 31.0905C41.0661 31.5851 41.5912 31.8613 42.086 31.7078C44.7394 30.8836 47.5526 31.1579 50.2213 32.5008C50.692 32.7379 51.1856 33.0295 51.6487 33.3436C51.81 33.4531 51.9931 33.5057 52.1743 33.5057C52.4745 33.5057 52.7696 33.3618 52.9509 33.0946C53.2417 32.6663 53.1301 32.0832 52.7018 31.7924Z" fill="white"/>
<path d="M61.231 43.9245C60.8466 43.1183 60.2101 41.7831 60.1987 41.3415C61.295 38.6392 60.8951 35.6489 59.069 32.9135C56.2609 28.7067 50.5057 25.6533 45.3844 25.6533C42.6773 25.6533 40.0338 26.2989 37.6556 27.5312C36.9733 23.7927 33.6947 20.9492 29.7622 20.9492C25.3367 20.9492 21.7363 24.5496 21.7363 28.975C21.7363 31.7906 23.1713 34.3506 25.5744 35.823C26.2672 36.2475 26.424 36.6144 26.4797 37.2156V40.4165V42.7015C26.4797 43.7483 27.3311 44.5999 28.3776 44.5999H28.6964C29.2114 48.7039 31.1975 52.43 34.3503 55.1719C34.3801 55.2645 34.4668 55.6986 34.0942 56.994C33.8041 58.0031 33.3588 59.1241 32.966 60.1131C32.7032 60.7749 32.4761 61.3465 32.3388 61.7787C32.2484 62.0636 32.2992 62.3746 32.4757 62.6161C32.6523 62.8574 32.9334 63.0001 33.2324 63.0001H46.6147C47.0544 63.0001 47.6583 62.8032 48.0384 61.8652C48.2039 61.457 48.3119 60.966 48.4264 60.4459C48.5378 59.9393 48.7989 58.7527 49.0586 58.6094C49.0588 58.6094 49.074 58.6068 49.1107 58.6125C49.1588 58.6202 49.2074 58.6238 49.2562 58.6238C50.6576 58.6238 51.8028 58.6874 52.8131 58.7433C55.7764 58.9078 57.5652 59.0071 59.1343 56.747C59.9323 55.5974 59.8418 53.9209 59.7461 52.1459C59.6968 51.2311 59.6459 50.2869 59.7362 49.5019C59.8998 49.3407 60.3095 49.0595 60.5664 48.8831C61.4502 48.2761 62.2848 47.703 62.2848 46.8316C62.2851 46.1693 61.8845 45.2954 61.231 43.9245ZM26.5541 34.224C24.7115 33.0952 23.6114 31.1331 23.6114 28.9749C23.6114 25.5833 26.3707 22.8241 29.7623 22.8241C33.154 22.8241 35.9132 25.5834 35.9132 28.9749C35.9132 31.1331 34.8133 33.0953 32.9705 34.2242C32.0948 34.7609 31.5743 35.3868 31.3273 36.2327L29.762 36.2321L28.1976 36.2327C27.9503 35.3869 27.4299 34.7609 26.5541 34.224ZM31.17 38.1078V39.4789H28.3549V38.1078H31.17ZM28.3778 42.7248C28.3674 42.7248 28.3549 42.7119 28.3549 42.7014V41.3539H31.17V42.7014C31.17 42.712 31.1573 42.7248 31.1467 42.7248H28.3778ZM59.5052 47.3373C58.6983 47.8916 58.0014 48.37 57.8987 49.0942C57.7575 50.0875 57.8167 51.1853 57.8739 52.2467C57.945 53.5636 58.0254 55.0563 57.5942 55.6775C56.6614 57.0214 55.8545 57.0344 52.9171 56.8712C51.9479 56.8174 50.7453 56.7507 49.3194 56.7486C48.7718 56.6841 47.8453 56.7869 47.227 57.9889C46.913 58.5992 46.7442 59.3661 46.5954 60.0427C46.5205 60.3827 46.4155 60.8605 46.317 61.1249H34.582C34.6231 61.0213 34.6654 60.9145 34.7089 60.805C36.0595 57.4044 36.9149 54.9103 35.6129 53.7847C32.8533 51.398 31.0934 48.166 30.5887 44.5998H31.1468C32.1935 44.5998 33.0451 43.7482 33.0451 42.7014V40.4164V37.2174C33.1007 36.6151 33.2569 36.2478 33.9503 35.8229C36.1695 34.4633 37.5618 32.1761 37.7623 29.6168C40.0633 28.2495 42.6879 27.5282 45.3845 27.5282C49.8515 27.5282 55.0642 30.2909 57.5097 33.9544C58.5578 35.5246 59.5702 37.9672 58.4407 40.6869C58.0728 41.5725 58.6183 42.8009 59.5385 44.7313C59.8365 45.3563 60.2677 46.261 60.3819 46.6836C60.1882 46.8684 59.7718 47.1543 59.5052 47.3373Z" fill="white"/>
<path d="M34.3608 27.6503C34.0839 26.6242 33.3957 25.8024 32.3704 25.2733C31.9103 25.0362 31.3449 25.2166 31.1074 25.6769C30.8701 26.1371 31.0507 26.7025 31.5109 26.9398C32.0707 27.2286 32.4108 27.6208 32.5505 28.1386C32.7716 28.9583 32.4371 29.8453 32.2903 30.0757C32.012 30.5123 32.1403 31.0919 32.5769 31.3702C32.7331 31.4699 32.9076 31.5172 33.08 31.5172C33.3896 31.5172 33.6926 31.3641 33.8713 31.0836C34.2713 30.4566 34.7316 29.0244 34.3608 27.6503Z" fill="white"/>
<path d="M29.7622 15C29.2444 15 28.8247 15.4199 28.8247 15.9375V18.6101C28.8247 19.1277 29.2444 19.5476 29.7622 19.5476C30.2799 19.5476 30.6997 19.1277 30.6997 18.6101V15.9375C30.6997 15.4199 30.2799 15 29.7622 15Z" fill="white"/>
<path d="M19.3601 28.0748H16.6875C16.1697 28.0748 15.75 28.4947 15.75 29.0123C15.75 29.5301 16.1697 29.9498 16.6875 29.9498H19.3602C19.8779 29.9498 20.2976 29.5301 20.2976 29.0123C20.2976 28.4947 19.8778 28.0748 19.3601 28.0748Z" fill="white"/>
<path d="M25.3726 19.534L24.0366 17.2204C23.7777 16.772 23.2042 16.6185 22.7559 16.8773C22.3076 17.1362 22.154 17.7095 22.4129 18.1579L23.7488 20.4715C23.9226 20.7723 24.2376 20.9404 24.5615 20.9404C24.7206 20.9404 24.8819 20.8999 25.0295 20.8146C25.4779 20.5557 25.6315 19.9824 25.3726 19.534Z" fill="white"/>
<path d="M21.2215 22.9992L18.9076 21.6633C18.4593 21.4045 17.8859 21.5582 17.627 22.0064C17.3681 22.4548 17.5217 23.0281 17.9701 23.287L20.284 24.6229C20.4315 24.7083 20.5928 24.7488 20.7518 24.7488C21.0758 24.7488 21.3909 24.5807 21.5646 24.2798C21.8235 23.8316 21.6699 23.2581 21.2215 22.9992Z" fill="white"/>
<path d="M41.8978 22.0063C41.6388 21.5579 41.0655 21.4042 40.6172 21.6631L38.3034 22.9991C37.855 23.258 37.7013 23.8315 37.9603 24.2797C38.1339 24.5805 38.449 24.7486 38.773 24.7486C38.932 24.7486 39.0932 24.7081 39.2409 24.6228L41.5547 23.2869C42.0031 23.0279 42.1568 22.4547 41.8978 22.0063Z" fill="white"/>
<path d="M21.5651 33.745C21.3063 33.2966 20.7331 33.1431 20.2846 33.4017L17.9702 34.7376C17.5218 34.9964 17.3681 35.5698 17.6269 36.0182C17.8005 36.3191 18.1157 36.4872 18.4397 36.4872C18.5987 36.4872 18.7599 36.4467 18.9075 36.3616L21.2218 35.0256C21.6702 34.7669 21.824 34.1934 21.5651 33.745Z" fill="white"/>
<path d="M24.8366 37.5436C24.3884 37.2849 23.815 37.4385 23.556 37.8868L22.4128 39.867C22.154 40.3154 22.3076 40.8889 22.756 41.1477C22.9037 41.233 23.0649 41.2735 23.2239 41.2735C23.5479 41.2735 23.863 41.1054 24.0367 40.8045L25.1799 38.8243C25.4388 38.3758 25.2851 37.8026 24.8366 37.5436Z" fill="white"/>
<path d="M36.7687 16.8774C36.3202 16.6184 35.747 16.7721 35.4881 17.2205L34.1522 19.5341C33.8932 19.9825 34.0468 20.5558 34.4952 20.8147C34.6429 20.9 34.8041 20.9405 34.9631 20.9405C35.2871 20.9405 35.6022 20.7724 35.7759 20.4715L37.1119 18.158C37.3708 17.7096 37.2171 17.1363 36.7687 16.8774Z" fill="white"/>
</svg>
